<svg xmlns="http://www.w3.org/2000/svg" viewBox="0 0 160 240" role="img" aria-label="22-joint SMPL-X pose">
  <g fill="none" stroke="#58c4dd" stroke-width="3.1" stroke-linecap="round" stroke-linejoin="round">
    <line x1="86.53" y1="123.58" x2="86.18" y2="109.02" />
    <line x1="86.18" y1="109.02" x2="84.55" y2="92.39" />
    <line x1="84.55" y1="92.39" x2="85.34" y2="85.22" />
    <line x1="85.34" y1="85.22" x2="87.33" y2="66.65" />
    <line x1="87.33" y1="66.65" x2="83.83" y2="49.33" />
    <line x1="86.53" y1="123.58" x2="79.78" y2="134.87" />
    <line x1="79.78" y1="134.87" x2="71.09" y2="175.05" />
    <line x1="71.09" y1="175.05" x2="71.01" y2="219.37" />
    <line x1="71.01" y1="219.37" x2="64.52" y2="225.43" />
    <line x1="86.53" y1="123.58" x2="94.05" y2="135.46" />
    <line x1="94.05" y1="135.46" x2="100.07" y2="174.62" />
    <line x1="100.07" y1="174.62" x2="101.69" y2="219.41" />
    <line x1="101.69" y1="219.41" x2="107.66" y2="226.00" />
    <line x1="85.34" y1="85.22" x2="80.40" y2="76.00" />
    <line x1="80.40" y1="76.00" x2="71.22" y2="63.45" />
    <line x1="71.22" y1="63.45" x2="46.86" y2="45.00" />
    <line x1="46.86" y1="45.00" x2="33.70" y2="19.89" />
    <line x1="85.34" y1="85.22" x2="91.15" y2="75.97" />
    <line x1="91.15" y1="75.97" x2="99.35" y2="64.52" />
    <line x1="99.35" y1="64.52" x2="117.07" y2="39.00" />
    <line x1="117.07" y1="39.00" x2="126.30" y2="14.00" />
  </g>
  <g fill="#101010" stroke="#f4f3ee" stroke-width="1.35">
    <circle cx="86.53" cy="123.58" r="2.35" />
    <circle cx="79.78" cy="134.87" r="2.35" />
    <circle cx="94.05" cy="135.46" r="2.35" />
    <circle cx="86.18" cy="109.02" r="2.35" />
    <circle cx="71.09" cy="175.05" r="2.35" />
    <circle cx="100.07" cy="174.62" r="2.35" />
    <circle cx="84.55" cy="92.39" r="2.35" />
    <circle cx="71.01" cy="219.37" r="2.35" />
    <circle cx="101.69" cy="219.41" r="2.35" />
    <circle cx="85.34" cy="85.22" r="2.35" />
    <circle cx="64.52" cy="225.43" r="2.35" />
    <circle cx="107.66" cy="226.00" r="2.35" />
    <circle cx="87.33" cy="66.65" r="2.35" />
    <circle cx="80.40" cy="76.00" r="2.35" />
    <circle cx="91.15" cy="75.97" r="2.35" />
    <circle cx="83.83" cy="49.33" r="2.35" />
    <circle cx="71.22" cy="63.45" r="2.35" />
    <circle cx="99.35" cy="64.52" r="2.35" />
    <circle cx="46.86" cy="45.00" r="2.35" />
    <circle cx="117.07" cy="39.00" r="2.35" />
    <circle cx="33.70" cy="19.89" r="2.35" />
    <circle cx="126.30" cy="14.00" r="2.35" />
  </g>
</svg>
