<svg xmlns="http://www.w3.org/2000/svg" viewBox="0 0 160 240" role="img" aria-label="22-joint SMPL-X pose">
  <g fill="none" stroke="#58c4dd" stroke-width="3.1" stroke-linecap="round" stroke-linejoin="round">
    <line x1="107.69" y1="60.34" x2="99.15" y2="40.63" />
    <line x1="99.15" y1="40.63" x2="75.22" y2="45.30" />
    <line x1="75.22" y1="45.30" x2="66.91" y2="51.12" />
    <line x1="66.91" y1="51.12" x2="40.14" y2="47.79" />
    <line x1="40.14" y1="47.79" x2="14.00" y2="50.78" />
    <line x1="107.69" y1="60.34" x2="117.89" y2="68.69" />
    <line x1="117.89" y1="68.69" x2="80.46" y2="123.24" />
    <line x1="80.46" y1="123.24" x2="76.22" y2="188.19" />
    <line x1="76.22" y1="188.19" x2="54.91" y2="198.48" />
    <line x1="107.69" y1="60.34" x2="124.79" y2="70.12" />
    <line x1="124.79" y1="70.12" x2="120.71" y2="128.86" />
    <line x1="120.71" y1="128.86" x2="146.00" y2="186.90" />
    <line x1="146.00" y1="186.90" x2="135.63" y2="199.37" />
    <line x1="66.91" y1="51.12" x2="51.40" y2="51.00" />
    <line x1="51.40" y1="51.00" x2="32.43" y2="62.97" />
    <line x1="32.43" y1="62.97" x2="29.52" y2="105.59" />
    <line x1="29.52" y1="105.59" x2="15.33" y2="150.06" />
    <line x1="66.91" y1="51.12" x2="55.40" y2="49.37" />
    <line x1="55.40" y1="49.37" x2="44.12" y2="60.40" />
    <line x1="44.12" y1="60.40" x2="37.97" y2="108.79" />
    <line x1="37.97" y1="108.79" x2="23.94" y2="147.70" />
  </g>
  <g fill="#101010" stroke="#f4f3ee" stroke-width="1.35">
    <circle cx="107.69" cy="60.34" r="2.35" />
    <circle cx="117.89" cy="68.69" r="2.35" />
    <circle cx="124.79" cy="70.12" r="2.35" />
    <circle cx="99.15" cy="40.63" r="2.35" />
    <circle cx="80.46" cy="123.24" r="2.35" />
    <circle cx="120.71" cy="128.86" r="2.35" />
    <circle cx="75.22" cy="45.30" r="2.35" />
    <circle cx="76.22" cy="188.19" r="2.35" />
    <circle cx="146.00" cy="186.90" r="2.35" />
    <circle cx="66.91" cy="51.12" r="2.35" />
    <circle cx="54.91" cy="198.48" r="2.35" />
    <circle cx="135.63" cy="199.37" r="2.35" />
    <circle cx="40.14" cy="47.79" r="2.35" />
    <circle cx="51.40" cy="51.00" r="2.35" />
    <circle cx="55.40" cy="49.37" r="2.35" />
    <circle cx="14.00" cy="50.78" r="2.35" />
    <circle cx="32.43" cy="62.97" r="2.35" />
    <circle cx="44.12" cy="60.40" r="2.35" />
    <circle cx="29.52" cy="105.59" r="2.35" />
    <circle cx="37.97" cy="108.79" r="2.35" />
    <circle cx="15.33" cy="150.06" r="2.35" />
    <circle cx="23.94" cy="147.70" r="2.35" />
  </g>
</svg>
