<svg xmlns="http://www.w3.org/2000/svg" viewBox="0 0 160 240" role="img" aria-label="22-joint SMPL-X pose">
  <g fill="none" stroke="#58c4dd" stroke-width="3.1" stroke-linecap="round" stroke-linejoin="round">
    <line x1="83.08" y1="96.80" x2="81.31" y2="83.57" />
    <line x1="81.31" y1="83.57" x2="80.53" y2="63.61" />
    <line x1="80.53" y1="63.61" x2="82.13" y2="56.43" />
    <line x1="82.13" y1="56.43" x2="85.71" y2="34.01" />
    <line x1="85.71" y1="34.01" x2="84.59" y2="14.00" />
    <line x1="83.08" y1="96.80" x2="77.08" y2="111.32" />
    <line x1="77.08" y1="111.32" x2="70.93" y2="162.70" />
    <line x1="70.93" y1="162.70" x2="79.89" y2="214.01" />
    <line x1="79.89" y1="214.01" x2="71.40" y2="226.00" />
    <line x1="83.08" y1="96.80" x2="94.21" y2="109.71" />
    <line x1="94.21" y1="109.71" x2="101.70" y2="96.35" />
    <line x1="101.70" y1="96.35" x2="104.68" y2="109.22" />
    <line x1="104.68" y1="109.22" x2="107.31" y2="101.48" />
    <line x1="82.13" y1="56.43" x2="76.27" y2="44.82" />
    <line x1="76.27" y1="44.82" x2="58.36" y2="39.45" />
    <line x1="58.36" y1="39.45" x2="56.00" y2="62.50" />
    <line x1="56.00" y1="62.50" x2="52.69" y2="89.82" />
    <line x1="82.13" y1="56.43" x2="90.01" y2="46.22" />
    <line x1="90.01" y1="46.22" x2="105.47" y2="41.18" />
    <line x1="105.47" y1="41.18" x2="103.20" y2="62.87" />
    <line x1="103.20" y1="62.87" x2="91.13" y2="93.05" />
  </g>
  <g fill="#101010" stroke="#f4f3ee" stroke-width="1.35">
    <circle cx="83.08" cy="96.80" r="2.35" />
    <circle cx="77.08" cy="111.32" r="2.35" />
    <circle cx="94.21" cy="109.71" r="2.35" />
    <circle cx="81.31" cy="83.57" r="2.35" />
    <circle cx="70.93" cy="162.70" r="2.35" />
    <circle cx="101.70" cy="96.35" r="2.35" />
    <circle cx="80.53" cy="63.61" r="2.35" />
    <circle cx="79.89" cy="214.01" r="2.35" />
    <circle cx="104.68" cy="109.22" r="2.35" />
    <circle cx="82.13" cy="56.43" r="2.35" />
    <circle cx="71.40" cy="226.00" r="2.35" />
    <circle cx="107.31" cy="101.48" r="2.35" />
    <circle cx="85.71" cy="34.01" r="2.35" />
    <circle cx="76.27" cy="44.82" r="2.35" />
    <circle cx="90.01" cy="46.22" r="2.35" />
    <circle cx="84.59" cy="14.00" r="2.35" />
    <circle cx="58.36" cy="39.45" r="2.35" />
    <circle cx="105.47" cy="41.18" r="2.35" />
    <circle cx="56.00" cy="62.50" r="2.35" />
    <circle cx="103.20" cy="62.87" r="2.35" />
    <circle cx="52.69" cy="89.82" r="2.35" />
    <circle cx="91.13" cy="93.05" r="2.35" />
  </g>
</svg>
