<svg xmlns="http://www.w3.org/2000/svg" viewBox="0 0 160 240" role="img" aria-label="22-joint SMPL-X pose">
  <g fill="none" stroke="#58c4dd" stroke-width="3.1" stroke-linecap="round" stroke-linejoin="round">
    <line x1="78.90" y1="116.80" x2="78.78" y2="93.41" />
    <line x1="78.78" y1="93.41" x2="77.43" y2="80.51" />
    <line x1="77.43" y1="80.51" x2="80.26" y2="78.15" />
    <line x1="80.26" y1="78.15" x2="87.07" y2="53.08" />
    <line x1="87.07" y1="53.08" x2="79.10" y2="31.60" />
    <line x1="78.90" y1="116.80" x2="69.65" y2="136.15" />
    <line x1="69.65" y1="136.15" x2="64.75" y2="146.51" />
    <line x1="64.75" y1="146.51" x2="64.02" y2="191.53" />
    <line x1="64.02" y1="191.53" x2="54.45" y2="205.28" />
    <line x1="78.90" y1="116.80" x2="90.79" y2="136.03" />
    <line x1="90.79" y1="136.03" x2="101.16" y2="141.97" />
    <line x1="101.16" y1="141.97" x2="84.17" y2="193.70" />
    <line x1="84.17" y1="193.70" x2="95.46" y2="208.40" />
    <line x1="80.26" y1="78.15" x2="73.43" y2="66.76" />
    <line x1="73.43" y1="66.76" x2="53.46" y2="63.72" />
    <line x1="53.46" y1="63.72" x2="14.00" y2="90.44" />
    <line x1="14.00" y1="90.44" x2="51.03" y2="128.06" />
    <line x1="80.26" y1="78.15" x2="91.53" y2="66.27" />
    <line x1="91.53" y1="66.27" x2="110.05" y2="62.51" />
    <line x1="110.05" y1="62.51" x2="146.00" y2="97.33" />
    <line x1="146.00" y1="97.33" x2="111.02" y2="130.33" />
  </g>
  <g fill="#101010" stroke="#f4f3ee" stroke-width="1.35">
    <circle cx="78.90" cy="116.80" r="2.35" />
    <circle cx="69.65" cy="136.15" r="2.35" />
    <circle cx="90.79" cy="136.03" r="2.35" />
    <circle cx="78.78" cy="93.41" r="2.35" />
    <circle cx="64.75" cy="146.51" r="2.35" />
    <circle cx="101.16" cy="141.97" r="2.35" />
    <circle cx="77.43" cy="80.51" r="2.35" />
    <circle cx="64.02" cy="191.53" r="2.35" />
    <circle cx="84.17" cy="193.70" r="2.35" />
    <circle cx="80.26" cy="78.15" r="2.35" />
    <circle cx="54.45" cy="205.28" r="2.35" />
    <circle cx="95.46" cy="208.40" r="2.35" />
    <circle cx="87.07" cy="53.08" r="2.35" />
    <circle cx="73.43" cy="66.76" r="2.35" />
    <circle cx="91.53" cy="66.27" r="2.35" />
    <circle cx="79.10" cy="31.60" r="2.35" />
    <circle cx="53.46" cy="63.72" r="2.35" />
    <circle cx="110.05" cy="62.51" r="2.35" />
    <circle cx="14.00" cy="90.44" r="2.35" />
    <circle cx="146.00" cy="97.33" r="2.35" />
    <circle cx="51.03" cy="128.06" r="2.35" />
    <circle cx="111.02" cy="130.33" r="2.35" />
  </g>
</svg>
