<svg xmlns="http://www.w3.org/2000/svg" viewBox="0 0 160 240" role="img" aria-label="22-joint SMPL-X pose">
  <g fill="none" stroke="#58c4dd" stroke-width="3.1" stroke-linecap="round" stroke-linejoin="round">
    <line x1="83.03" y1="108.92" x2="81.89" y2="97.12" />
    <line x1="81.89" y1="97.12" x2="80.00" y2="83.47" />
    <line x1="80.00" y1="83.47" x2="81.55" y2="77.22" />
    <line x1="81.55" y1="77.22" x2="82.10" y2="60.88" />
    <line x1="82.10" y1="60.88" x2="79.99" y2="46.09" />
    <line x1="83.03" y1="108.92" x2="77.69" y2="118.67" />
    <line x1="77.69" y1="118.67" x2="70.54" y2="152.87" />
    <line x1="70.54" y1="152.87" x2="69.47" y2="189.32" />
    <line x1="69.47" y1="189.32" x2="66.21" y2="193.91" />
    <line x1="83.03" y1="108.92" x2="89.38" y2="119.17" />
    <line x1="89.38" y1="119.17" x2="98.06" y2="151.30" />
    <line x1="98.06" y1="151.30" x2="101.63" y2="187.96" />
    <line x1="101.63" y1="187.96" x2="106.86" y2="193.52" />
    <line x1="81.55" y1="77.22" x2="76.96" y2="69.42" />
    <line x1="76.96" y1="69.42" x2="65.07" y2="64.21" />
    <line x1="65.07" y1="64.21" x2="39.83" y2="68.89" />
    <line x1="39.83" y1="68.89" x2="14.00" y2="65.36" />
    <line x1="81.55" y1="77.22" x2="86.06" y2="69.04" />
    <line x1="86.06" y1="69.04" x2="95.81" y2="64.67" />
    <line x1="95.81" y1="64.67" x2="122.44" y2="67.70" />
    <line x1="122.44" y1="67.70" x2="146.00" y2="69.03" />
  </g>
  <g fill="#101010" stroke="#f4f3ee" stroke-width="1.35">
    <circle cx="83.03" cy="108.92" r="2.35" />
    <circle cx="77.69" cy="118.67" r="2.35" />
    <circle cx="89.38" cy="119.17" r="2.35" />
    <circle cx="81.89" cy="97.12" r="2.35" />
    <circle cx="70.54" cy="152.87" r="2.35" />
    <circle cx="98.06" cy="151.30" r="2.35" />
    <circle cx="80.00" cy="83.47" r="2.35" />
    <circle cx="69.47" cy="189.32" r="2.35" />
    <circle cx="101.63" cy="187.96" r="2.35" />
    <circle cx="81.55" cy="77.22" r="2.35" />
    <circle cx="66.21" cy="193.91" r="2.35" />
    <circle cx="106.86" cy="193.52" r="2.35" />
    <circle cx="82.10" cy="60.88" r="2.35" />
    <circle cx="76.96" cy="69.42" r="2.35" />
    <circle cx="86.06" cy="69.04" r="2.35" />
    <circle cx="79.99" cy="46.09" r="2.35" />
    <circle cx="65.07" cy="64.21" r="2.35" />
    <circle cx="95.81" cy="64.67" r="2.35" />
    <circle cx="39.83" cy="68.89" r="2.35" />
    <circle cx="122.44" cy="67.70" r="2.35" />
    <circle cx="14.00" cy="65.36" r="2.35" />
    <circle cx="146.00" cy="69.03" r="2.35" />
  </g>
</svg>
