<svg xmlns="http://www.w3.org/2000/svg" viewBox="0 0 160 240" role="img" aria-label="22-joint SMPL-X pose">
  <g fill="none" stroke="#58c4dd" stroke-width="3.1" stroke-linecap="round" stroke-linejoin="round">
    <line x1="99.84" y1="104.47" x2="102.56" y2="87.85" />
    <line x1="102.56" y1="87.85" x2="104.01" y2="67.99" />
    <line x1="104.01" y1="67.99" x2="106.84" y2="60.64" />
    <line x1="106.84" y1="60.64" x2="111.98" y2="37.22" />
    <line x1="111.98" y1="37.22" x2="108.03" y2="14.00" />
    <line x1="99.84" y1="104.47" x2="90.95" y2="116.81" />
    <line x1="90.95" y1="116.81" x2="62.21" y2="160.31" />
    <line x1="62.21" y1="160.31" x2="44.56" y2="208.62" />
    <line x1="44.56" y1="208.62" x2="31.05" y2="218.20" />
    <line x1="99.84" y1="104.47" x2="106.91" y2="120.21" />
    <line x1="106.91" y1="120.21" x2="114.65" y2="167.19" />
    <line x1="114.65" y1="167.19" x2="113.33" y2="219.41" />
    <line x1="113.33" y1="219.41" x2="121.20" y2="226.00" />
    <line x1="106.84" y1="60.64" x2="101.61" y2="47.69" />
    <line x1="101.61" y1="47.69" x2="88.44" y2="34.79" />
    <line x1="88.44" y1="34.79" x2="89.05" y2="52.34" />
    <line x1="89.05" y1="52.34" x2="97.06" y2="40.06" />
    <line x1="106.84" y1="60.64" x2="115.24" y2="50.10" />
    <line x1="115.24" y1="50.10" x2="128.95" y2="43.95" />
    <line x1="128.95" y1="43.95" x2="117.65" y2="55.43" />
    <line x1="117.65" y1="55.43" x2="104.48" y2="39.40" />
  </g>
  <g fill="#101010" stroke="#f4f3ee" stroke-width="1.35">
    <circle cx="99.84" cy="104.47" r="2.35" />
    <circle cx="90.95" cy="116.81" r="2.35" />
    <circle cx="106.91" cy="120.21" r="2.35" />
    <circle cx="102.56" cy="87.85" r="2.35" />
    <circle cx="62.21" cy="160.31" r="2.35" />
    <circle cx="114.65" cy="167.19" r="2.35" />
    <circle cx="104.01" cy="67.99" r="2.35" />
    <circle cx="44.56" cy="208.62" r="2.35" />
    <circle cx="113.33" cy="219.41" r="2.35" />
    <circle cx="106.84" cy="60.64" r="2.35" />
    <circle cx="31.05" cy="218.20" r="2.35" />
    <circle cx="121.20" cy="226.00" r="2.35" />
    <circle cx="111.98" cy="37.22" r="2.35" />
    <circle cx="101.61" cy="47.69" r="2.35" />
    <circle cx="115.24" cy="50.10" r="2.35" />
    <circle cx="108.03" cy="14.00" r="2.35" />
    <circle cx="88.44" cy="34.79" r="2.35" />
    <circle cx="128.95" cy="43.95" r="2.35" />
    <circle cx="89.05" cy="52.34" r="2.35" />
    <circle cx="117.65" cy="55.43" r="2.35" />
    <circle cx="97.06" cy="40.06" r="2.35" />
    <circle cx="104.48" cy="39.40" r="2.35" />
  </g>
</svg>
